<svg width="13" height="12" viewBox="0 0 13 12" fill="none" xmlns="http://www.w3.org/2000/svg">
<path d="M11.1667 11.4311H1.83333C1.47971 11.4311 1.14057 11.2906 0.890524 11.0405C0.640476 10.7905 0.5 10.4514 0.5 10.0977V4.09774C0.5 3.74412 0.640476 3.40498 0.890524 3.15493C1.14057 2.90488 1.47971 2.7644 1.83333 2.7644H11.1667C11.5203 2.7644 11.8594 2.90488 12.1095 3.15493C12.3595 3.40498 12.5 3.74412 12.5 4.09774V10.0977C12.5 10.4514 12.3595 10.7905 12.1095 11.0405C11.8594 11.2906 11.5203 11.4311 11.1667 11.4311Z" stroke="#1FA38C"/>
<path d="M9.49984 7.43107C9.41143 7.43107 9.32665 7.39595 9.26413 7.33344C9.20162 7.27093 9.1665 7.18614 9.1665 7.09774C9.1665 7.00933 9.20162 6.92455 9.26413 6.86204C9.32665 6.79952 9.41143 6.7644 9.49984 6.7644C9.58824 6.7644 9.67303 6.79952 9.73554 6.86204C9.79805 6.92455 9.83317 7.00933 9.83317 7.09774C9.83317 7.18614 9.79805 7.27093 9.73554 7.33344C9.67303 7.39595 9.58824 7.43107 9.49984 7.43107Z" stroke="#1FA38C" stroke-linecap="round" stroke-linejoin="round"/>
<path d="M10.5 2.7643V1.83296C10.4999 1.62863 10.4529 1.42705 10.3626 1.24377C10.2722 1.0605 10.141 0.900448 9.97892 0.77597C9.81688 0.651493 9.6284 0.565923 9.42804 0.525868C9.22767 0.485814 9.02077 0.492347 8.82333 0.544962L1.49 2.5003C1.20604 2.57597 0.955026 2.74334 0.775993 2.97638C0.59696 3.20942 0.499935 3.49509 0.5 3.78896V4.09763" stroke="#1FA38C"/>
</svg>
